<?xml version="1.0" encoding="UTF-8"?>
<svg height="16px" viewBox="0 0 16 16" width="16px" xmlns="http://www.w3.org/2000/svg">
    <path d="m 13.535156 1.464844 c -0.28125 -0.28125 -0.691406 -0.464844 -1.125 -0.464844 h -8.820312 c -0.878906 0 -1.589844 0.710938 -1.589844 1.589844 v 10.820312 c 0 0.878906 0.710938 1.589844 1.589844 1.589844 h 8.820312 c 0.878906 0 1.589844 -0.710938 1.589844 -1.589844 v -10.820312 c 0 -0.433594 -0.183594 -0.84375 -0.464844 -1.125 z m -5.398437 1.8125 c 0.6875 0.035156 1.355469 0.320312 1.863281 0.824218 c 0.808594 0.808594 1.054688 2.035157 0.617188 3.09375 c -0.3125 0.753907 -0.933594 1.316407 -1.675782 1.582032 v 1.222656 h -1.894531 v -2 c 0 -0.519531 0.425781 -0.945312 0.945313 -0.945312 c 0.386718 0 0.730468 -0.230469 0.878906 -0.585938 c 0.140625 -0.351562 0.066406 -0.753906 -0.207032 -1.027344 c -0.273437 -0.273437 -0.675781 -0.351562 -1.03125 -0.207031 c -0.355468 0.144531 -0.585937 0.488281 -0.585937 0.875 h -1.890625 c 0 -1.144531 0.695312 -2.183594 1.75 -2.621094 c 0.398438 -0.164062 0.816406 -0.230469 1.230469 -0.210937 z m -0.144531 7.777344 c 0.523437 0 0.949218 0.425781 0.949218 0.945312 s -0.425781 0.945312 -0.949218 0.945312 c -0.519532 0 -0.945313 -0.425781 -0.945313 -0.945312 s 0.425781 -0.945312 0.945313 -0.945312 z m 0 0" fill="#2e3436"/>
</svg>
