<?xml version="1.0" encoding="UTF-8"?>
<svg height="128px" viewBox="0 0 128 128" width="128px" xmlns="http://www.w3.org/2000/svg" xmlns:xlink="http://www.w3.org/1999/xlink">
    <linearGradient id="a" gradientTransform="matrix(0.196428 0 0 0.342105 2.59729 276.740051)" gradientUnits="userSpaceOnUse" x1="88.595886" x2="536.595886" y1="-449.394012" y2="-449.394012">
        <stop offset="0" stop-color="#1a5fb4"/>
        <stop offset="0.0500001" stop-color="#62a0ea"/>
        <stop offset="0.099807" stop-color="#1a5fb4"/>
        <stop offset="0.900001" stop-color="#1a5fb4"/>
        <stop offset="0.950001" stop-color="#62a0ea"/>
        <stop offset="1" stop-color="#1a5fb4"/>
    </linearGradient>
    <linearGradient id="b" gradientTransform="matrix(0.196428 0 0 0.342105 2.59729 270.740051)" gradientUnits="userSpaceOnUse" x1="88.595886" x2="536.595886" y1="-449.394012" y2="-449.394012">
        <stop offset="0" stop-color="#ff7800"/>
        <stop offset="0.0500001" stop-color="#ffbe6f"/>
        <stop offset="0.099807" stop-color="#ff7800"/>
        <stop offset="0.900001" stop-color="#ff7800"/>
        <stop offset="0.948723" stop-color="#ffbe6f"/>
        <stop offset="1" stop-color="#ff7800"/>
    </linearGradient>
    <linearGradient id="c" gradientTransform="matrix(0.196428 0 0 0.342105 2.597626 264.740051)" gradientUnits="userSpaceOnUse" x1="88.595886" x2="536.595886" y1="-449.394012" y2="-449.394012">
        <stop offset="0" stop-color="#26a269"/>
        <stop offset="0.0500001" stop-color="#57e389"/>
        <stop offset="0.099807" stop-color="#26a269"/>
        <stop offset="0.900001" stop-color="#26a269"/>
        <stop offset="0.950001" stop-color="#57e389"/>
        <stop offset="1" stop-color="#26a269"/>
    </linearGradient>
    <linearGradient id="d" gradientUnits="userSpaceOnUse">
        <stop offset="0" stop-color="#62a0ea"/>
        <stop offset="0.103746" stop-color="#91bcf0"/>
        <stop offset="0.201883" stop-color="#62a0ea"/>
        <stop offset="0.795076" stop-color="#62a0ea"/>
        <stop offset="0.896267" stop-color="#91bcf0"/>
        <stop offset="1" stop-color="#62a0ea"/>
    </linearGradient>
    <linearGradient id="e" x1="44" x2="56" xlink:href="#d" y1="41.5" y2="41.5"/>
    <linearGradient id="f" x1="57.99997" x2="69.99997" xlink:href="#d" y1="71" y2="71"/>
    <linearGradient id="g" x1="58" x2="70" xlink:href="#d" y1="90.264709" y2="90.264709"/>
    <path d="m 28 19 h 72 c 4.417969 0 8 3.582031 8 8 v 88 c 0 4.417969 -3.582031 8 -8 8 h -72 c -4.417969 0 -8 -3.582031 -8 -8 v -88 c 0 -4.417969 3.582031 -8 8 -8 z m 0 0" fill="url(#a)"/>
    <path d="m 28 18 h 72 c 4.417969 0 8 3.582031 8 8 v 84 c 0 4.417969 -3.582031 8 -8 8 h -72 c -4.417969 0 -8 -3.582031 -8 -8 v -84 c 0 -4.417969 3.582031 -8 8 -8 z m 0 0" fill="#134683"/>
    <path d="m 28 13 h 72 c 4.417969 0 8 3.582031 8 8 v 88 c 0 4.417969 -3.582031 8 -8 8 h -72 c -4.417969 0 -8 -3.582031 -8 -8 v -88 c 0 -4.417969 3.582031 -8 8 -8 z m 0 0" fill="url(#b)"/>
    <path d="m 28 12 h 72 c 4.417969 0 8 3.582031 8 8 v 84 c 0 4.417969 -3.582031 8 -8 8 h -72 c -4.417969 0 -8 -3.582031 -8 -8 v -84 c 0 -4.417969 3.582031 -8 8 -8 z m 0 0" fill="#c96400"/>
    <path d="m 28 7 h 72 c 4.417969 0 8 3.582031 8 8 v 88 c 0 4.417969 -3.582031 8 -8 8 h -72 c -4.417969 0 -8 -3.582031 -8 -8 v -88 c 0 -4.417969 3.582031 -8 8 -8 z m 0 0" fill="url(#c)"/>
    <path d="m 28 6 h 72 c 4.417969 0 8 3.582031 8 8 v 84 c 0 4.417969 -3.582031 8 -8 8 h -72 c -4.417969 0 -8 -3.582031 -8 -8 v -84 c 0 -4.417969 3.582031 -8 8 -8 z m 0 0" fill="#57e389"/>
    <path d="m 61 80.765625 h 6 c 1.65625 0 3 1.34375 3 3 v 6 c 0 1.65625 -1.34375 3 -3 3 h -6 c -1.65625 0 -3 -1.34375 -3 -3 v -6 c 0 -1.65625 1.34375 -3 3 -3 z m 0 0" fill="#62a0ea"/>
    <path d="m 64 68 s 0 -8 7 -14 c 4.296875 -3.679688 8 -10.675781 8 -17 c 0 -5 -4 -14 -15 -14 s -14 9 -14 16" fill="none" stroke="#62a0ea" stroke-width="12"/>
    <path d="m 44 39 v 2 c 0 1.660156 1.339844 3 3 3 h 6 c 1.660156 0 3 -1.339844 3 -3 v -2 z m 0 0" fill="url(#e)"/>
    <path d="m 58 68.5 v 2 c 0 1.660156 1.339844 3 3 3 h 6 c 1.660156 0 3 -1.339844 3 -3 v -2 z m 0 0" fill="url(#f)"/>
    <path d="m 58 87.765625 v 2 c 0 1.660156 1.339844 3 3 3 h 6 c 1.660156 0 3 -1.339844 3 -3 v -2 z m 0 0" fill="url(#g)"/>
    <path d="m 61 78.765625 h 6 c 1.65625 0 3 1.34375 3 3 v 6 c 0 1.65625 -1.34375 3 -3 3 h -6 c -1.65625 0 -3 -1.34375 -3 -3 v -6 c 0 -1.65625 1.34375 -3 3 -3 z m 0 0" fill="#1a5fb4"/>
    <path d="m 64 66 s 0 -8 7 -14 c 4.296875 -3.679688 8 -10.675781 8 -17 c 0 -5 -4 -14 -15 -14 s -14 9 -14 16" fill="none" stroke="#1a5fb4" stroke-width="12"/>
    <g fill="#1a5fb4">
        <path d="m 44 37 v 2 c 0 1.660156 1.339844 3 3 3 h 6 c 1.660156 0 3 -1.339844 3 -3 v -2 z m 0 0"/>
        <path d="m 58 66 v 2 c 0 1.660156 1.339844 3 3 3 h 6 c 1.660156 0 3 -1.339844 3 -3 v -2 z m 0 0"/>
    </g>
</svg>
