<?xml version="1.0" encoding="UTF-8" standalone="no"?>
<svg
   height="128px"
   viewBox="0 0 128 128"
   width="128px"
   version="1.1"
   id="svg38"
   sodipodi:docname="io.github.nokse22.trivia-quiz.svg"
   inkscape:version="1.3.2 (091e20ef0f, 2023-11-25)"
   xmlns:inkscape="http://www.inkscape.org/namespaces/inkscape"
   xmlns:sodipodi="http://sodipodi.sourceforge.net/DTD/sodipodi-0.dtd"
   xmlns:xlink="http://www.w3.org/1999/xlink"
   xmlns="http://www.w3.org/2000/svg"
   xmlns:svg="http://www.w3.org/2000/svg">
  <defs
     id="defs38" />
  <sodipodi:namedview
     id="namedview38"
     pagecolor="#ffffff"
     bordercolor="#000000"
     borderopacity="0.25"
     inkscape:showpageshadow="2"
     inkscape:pageopacity="0.0"
     inkscape:pagecheckerboard="0"
     inkscape:deskcolor="#d1d1d1"
     showgrid="false"
     inkscape:zoom="5.734375"
     inkscape:cx="50.833787"
     inkscape:cy="59.46594"
     inkscape:window-width="1920"
     inkscape:window-height="1011"
     inkscape:window-x="0"
     inkscape:window-y="0"
     inkscape:window-maximized="1"
     inkscape:current-layer="svg38" />
  <linearGradient
     id="a"
     gradientTransform="matrix(0.196428 0 0 0.342105 2.59729 276.740051)"
     gradientUnits="userSpaceOnUse"
     x1="88.595886"
     x2="536.595886"
     y1="-449.394012"
     y2="-449.394012">
    <stop
       offset="0"
       stop-color="#1a5fb4"
       id="stop1" />
    <stop
       offset="0.0500001"
       stop-color="#62a0ea"
       id="stop2" />
    <stop
       offset="0.099807"
       stop-color="#1a5fb4"
       id="stop3" />
    <stop
       offset="0.900001"
       stop-color="#1a5fb4"
       id="stop4" />
    <stop
       offset="0.950001"
       stop-color="#62a0ea"
       id="stop5" />
    <stop
       offset="1"
       stop-color="#1a5fb4"
       id="stop6" />
  </linearGradient>
  <linearGradient
     id="b"
     gradientTransform="matrix(0.196428 0 0 0.342105 2.59729 270.740051)"
     gradientUnits="userSpaceOnUse"
     x1="88.595886"
     x2="536.595886"
     y1="-449.394012"
     y2="-449.394012">
    <stop
       offset="0"
       stop-color="#ff7800"
       id="stop7" />
    <stop
       offset="0.0500001"
       stop-color="#ffbe6f"
       id="stop8" />
    <stop
       offset="0.099807"
       stop-color="#ff7800"
       id="stop9" />
    <stop
       offset="0.900001"
       stop-color="#ff7800"
       id="stop10" />
    <stop
       offset="0.948723"
       stop-color="#ffbe6f"
       id="stop11" />
    <stop
       offset="1"
       stop-color="#ff7800"
       id="stop12" />
  </linearGradient>
  <linearGradient
     id="c"
     gradientTransform="matrix(0.196428 0 0 0.342105 2.597626 264.740051)"
     gradientUnits="userSpaceOnUse"
     x1="88.595886"
     x2="536.595886"
     y1="-449.394012"
     y2="-449.394012">
    <stop
       offset="0"
       stop-color="#26a269"
       id="stop13" />
    <stop
       offset="0.0500001"
       stop-color="#57e389"
       id="stop14" />
    <stop
       offset="0.099807"
       stop-color="#26a269"
       id="stop15" />
    <stop
       offset="0.900001"
       stop-color="#26a269"
       id="stop16" />
    <stop
       offset="0.950001"
       stop-color="#57e389"
       id="stop17" />
    <stop
       offset="1"
       stop-color="#26a269"
       id="stop18" />
  </linearGradient>
  <linearGradient
     id="d"
     gradientUnits="userSpaceOnUse">
    <stop
       offset="0"
       stop-color="#62a0ea"
       id="stop19" />
    <stop
       offset="0.103746"
       stop-color="#91bcf0"
       id="stop20" />
    <stop
       offset="0.201883"
       stop-color="#62a0ea"
       id="stop21" />
    <stop
       offset="0.795076"
       stop-color="#62a0ea"
       id="stop22" />
    <stop
       offset="0.896267"
       stop-color="#91bcf0"
       id="stop23" />
    <stop
       offset="1"
       stop-color="#62a0ea"
       id="stop24" />
  </linearGradient>
  <linearGradient
     id="e"
     x1="44"
     x2="56"
     xlink:href="#d"
     y1="41.5"
     y2="41.5"
     gradientTransform="translate(-1.916847)" />
  <linearGradient
     id="f"
     x1="57.99997"
     x2="69.99997"
     xlink:href="#d"
     y1="71"
     y2="71" />
  <linearGradient
     id="g"
     x1="58"
     x2="70"
     xlink:href="#d"
     y1="90.264709"
     y2="90.264709" />
  <path
     d="m 28 19 h 72 c 4.417969 0 8 3.582031 8 8 v 88 c 0 4.417969 -3.582031 8 -8 8 h -72 c -4.417969 0 -8 -3.582031 -8 -8 v -88 c 0 -4.417969 3.582031 -8 8 -8 z m 0 0"
     fill="url(#a)"
     id="path24" />
  <path
     d="m 28 18 h 72 c 4.417969 0 8 3.582031 8 8 v 84 c 0 4.417969 -3.582031 8 -8 8 h -72 c -4.417969 0 -8 -3.582031 -8 -8 v -84 c 0 -4.417969 3.582031 -8 8 -8 z m 0 0"
     fill="#134683"
     id="path25" />
  <path
     d="m 28 13 h 72 c 4.417969 0 8 3.582031 8 8 v 88 c 0 4.417969 -3.582031 8 -8 8 h -72 c -4.417969 0 -8 -3.582031 -8 -8 v -88 c 0 -4.417969 3.582031 -8 8 -8 z m 0 0"
     fill="url(#b)"
     id="path26" />
  <path
     d="m 28 12 h 72 c 4.417969 0 8 3.582031 8 8 v 84 c 0 4.417969 -3.582031 8 -8 8 h -72 c -4.417969 0 -8 -3.582031 -8 -8 v -84 c 0 -4.417969 3.582031 -8 8 -8 z m 0 0"
     fill="#c96400"
     id="path27" />
  <path
     d="m 28 7 h 72 c 4.417969 0 8 3.582031 8 8 v 88 c 0 4.417969 -3.582031 8 -8 8 h -72 c -4.417969 0 -8 -3.582031 -8 -8 v -88 c 0 -4.417969 3.582031 -8 8 -8 z m 0 0"
     fill="url(#c)"
     id="path28" />
  <path
     d="m 28 6 h 72 c 4.417969 0 8 3.582031 8 8 v 84 c 0 4.417969 -3.582031 8 -8 8 h -72 c -4.417969 0 -8 -3.582031 -8 -8 v -84 c 0 -4.417969 3.582031 -8 8 -8 z m 0 0"
     fill="#57e389"
     id="path29" />
  <g
     id="g39"
     transform="matrix(1.1556738,0,0,1.1556738,-9.4333333,-5.0629048)">
    <path
       d="m 61,80.765625 h 6 c 1.65625,0 3,1.34375 3,3 v 6 c 0,1.65625 -1.34375,3 -3,3 h -6 c -1.65625,0 -3,-1.34375 -3,-3 v -6 c 0,-1.65625 1.34375,-3 3,-3 z m 0,0"
       fill="#62a0ea"
       id="path30" />
    <path
       d="m 58,68.5 v 2 c 0,1.660156 1.339844,3 3,3 h 6 c 1.660156,0 3,-1.339844 3,-3 v -2 z m 0,0"
       fill="url(#f)"
       id="path33"
       style="fill:url(#f)" />
    <path
       d="m 58,87.765625 v 2 c 0,1.660156 1.339844,3 3,3 h 6 c 1.660156,0 3,-1.339844 3,-3 v -2 z m 0,0"
       fill="url(#g)"
       id="path34"
       style="fill:url(#g)" />
    <path
       d="m 42.083153,39 v 2 c 0,1.660156 1.339844,3 3,3 h 6 c 1.660156,0 3,-1.339844 3,-3 v -2 z m 0,0"
       fill="url(#e)"
       id="path32"
       style="fill:url(#e)" />
    <path
       d="m 61,78.765625 h 6 c 1.65625,0 3,1.34375 3,3 v 6 c 0,1.65625 -1.34375,3 -3,3 h -6 c -1.65625,0 -3,-1.34375 -3,-3 v -6 c 0,-1.65625 1.34375,-3 3,-3 z m 0,0"
       fill="#1a5fb4"
       id="path35" />
    <path
       d="M 64,68 C 64,68 64,56.311179 71,51.307166 75.005622,48.443711 79,43.324219 79,37 79,30.520519 73.916957,22.821537 64.5,22.821537 53.5,22.821537 48.083153,32 48.083153,39"
       fill="none"
       stroke="#1a5fb4"
       stroke-width="12"
       id="path36-3"
       sodipodi:nodetypes="csssc"
       style="stroke:#62a0ea;stroke-opacity:1" />
    <path
       d="M 64,66 C 64,66 64,54.311179 71,49.307166 75.005622,46.443711 79,41.324219 79,35 79,28.520519 73.916957,20.821537 64.5,20.821537 53.5,20.821537 48.083153,30 48.083153,37"
       fill="none"
       stroke="#1a5fb4"
       stroke-width="12"
       id="path36"
       sodipodi:nodetypes="csssc" />
    <g
       fill="#1a5fb4"
       id="g38">
      <path
         d="m 42.083153,37 v 2 c 0,1.660156 1.339844,3 3,3 h 6 c 1.660156,0 3,-1.339844 3,-3 v -2 z m 0,0"
         id="path37" />
      <path
         d="m 58,66 v 2 c 0,1.660156 1.339844,3 3,3 h 6 c 1.660156,0 3,-1.339844 3,-3 v -2 z m 0,0"
         id="path38" />
    </g>
  </g>
</svg>
